<svg xmlns="http://www.w3.org/2000/svg" viewBox="0 0 532.78 199.18"><defs><style>.cls-1{fill:#b52f32;}.cls-2{fill:#010101;}.cls-3{fill:#030303;}.cls-4{fill:#040404;}.cls-5{fill:#050505;}.cls-6{fill:#020202;}.cls-7{fill:#070707;}</style></defs><g id="Layer_2" data-name="Layer 2"><g id="Layer_1-2" data-name="Layer 1"><path class="cls-1" d="M175.13,0c1.41,2.9,2.81,5.82,4.27,8.7a1.61,1.61,0,0,0,1.1.59c3,.47,6,.89,9.2,1.36-.32.35-.53.59-.77.82-2,1.92-3.93,3.85-5.92,5.74-.66.62-.69,1,.12,1.52,27.16,17.93,51.8,38.91,74.69,62,1.16,1.17,2.37,2.3,3.65,3.53,3.21-8.31,6.41-16.62,9.64-25h12.82c2.35,0,2.34,0,3.2,2.22q20,51.8,39.94,103.61c.14.35.25.71.41,1.16a4.38,4.38,0,0,1-.46.07c-4.59,0-9.18,0-13.77,0a1.53,1.53,0,0,1-1.09-.7c-12.31-22-27.89-41.68-44.26-60.75-.09-.11-.2-.19-.4-.38-.72,1.94-1.41,3.8-2.09,5.67q-10.11,27.6-20.19,55.22a1.26,1.26,0,0,1-1.42,1c-4.59,0-9.17,0-13.92,0,.15-.44.25-.79.38-1.13q13.58-35.2,27.18-70.41a1.87,1.87,0,0,0-.44-2.29,1022.08,1022.08,0,0,0-73.26-72.31c-.28-.25-.57-.48-1.06-.88.5,3,.95,5.67,1.44,8.6l-4.58-2.39c-1.51-.76-3-2.1-4.52-2.11s-3,1.34-4.41,2.1L166,27.91c.49-2.86.85-5.55,1.43-8.19a3,3,0,0,0-1-3.2c-2-1.89-3.78-4-5.6-5.93,2.25-.33,4.76-.81,7.3-1a3.48,3.48,0,0,0,3.43-2.42c.86-2.15,2-4.18,3-6.27a6.41,6.41,0,0,0,.31-.87ZM278.55,74.34c-.21.51-.36.86-.49,1.22-2.18,5.94-4.33,11.9-6.56,17.83A1.9,1.9,0,0,0,272,95.6q12.12,13.92,24.18,27.91l.6.7.18-.13C290.83,107.56,284.72,91,278.55,74.34Z"/><path class="cls-2" d="M532.78,139.45c-.25,1.22-.44,2.46-.77,3.66-3.29,11.87-11,19.36-22.76,22.77-6.07,1.77-12.31,1.8-18.57,1.15a41.94,41.94,0,0,1-16-4.68c-5.67-3.1-10.16-7.31-12.5-13.5a25.94,25.94,0,0,1-1.59-9.23h14.89c.3,1.33.5,2.69.91,4a15.2,15.2,0,0,0,9.9,10.5c7.46,2.53,15,2.57,22.27-.73,5-2.28,8.86-6,10-11.59,1.93-9.61-1.81-16.59-11-19.84-4.86-1.71-9.95-2.79-15-4-6.38-1.61-12.76-3.2-18.68-6.2-8.15-4.12-12.25-10.9-13.1-19.83a30.33,30.33,0,0,1,2.43-16.2,28.29,28.29,0,0,1,17.29-15,46.23,46.23,0,0,1,32.9.85c10.06,4.09,15.67,11.91,17.25,22.64.05.34.05.69.09,1.09H515.22c-.19-.86-.31-1.74-.56-2.57a16.41,16.41,0,0,0-10.79-11.2,26.54,26.54,0,0,0-18.94.3c-8.15,3.19-11.13,9.73-10.47,17.84.56,6.93,4.8,11.19,11,13.42,4.94,1.8,10.12,3,15.22,4.29,6.33,1.66,12.71,3.11,18.65,6,8,3.88,12.26,10.38,13.29,19.11a2.29,2.29,0,0,0,.2.53Z"/><path class="cls-1" d="M68.7,91l29-31.76,15.92,16.9c-.25.23-.46.45-.69.64Q94.35,91.52,75.76,106.22a1.39,1.39,0,0,0-.52,1.92q11.07,28.59,22.09,57.2c.11.29.19.59.32,1H90.5c-2.3,0-4.59,0-6.88,0a1.11,1.11,0,0,1-1.27-.9q-8.43-22.92-16.91-45.84L64,115.65l-1.56,1.19Q42.14,132.92,21.88,149a3.7,3.7,0,0,0-1.07,1.49q-2.79,7.47-5.48,15a1.1,1.1,0,0,1-1.27.89c-4.37,0-8.75,0-13.12,0H0c1.25-3.25,2.45-6.4,3.66-9.54q18.62-48.25,37.2-96.51a1.34,1.34,0,0,1,1.51-1q6.56.08,13.12,0a1.14,1.14,0,0,1,1.29.88Q62.45,75,68.19,89.77C68.34,90.16,68.5,90.54,68.7,91Zm-20-16.65C40.81,95.81,33.07,117,25.32,138.13l.38.27a3.39,3.39,0,0,1,.36-.65q16.11-17.65,32.23-35.3a1.21,1.21,0,0,0,.28-1.47q-4.74-12.75-9.44-25.53C49,75.17,48.89,74.9,48.66,74.37Zm-23.35,64,0,.07h.06Z"/><path class="cls-2" d="M130.2,166.31v-107c.26,0,.5-.06.73-.06,11.51,0,23-.07,34.51,0,9.22.08,18.19,1.56,26.57,5.59,14.05,6.76,22.81,17.86,26.27,33a65.86,65.86,0,0,1-.93,34.27c-4.83,15.84-15.64,25.86-31.18,31a68.65,68.65,0,0,1-21.35,3.15c-11.29,0-22.59,0-33.88,0ZM144.28,71.2v84.3H145c6.36,0,12.71,0,19.06,0a57.66,57.66,0,0,0,12.29-1.24c13.35-2.94,22.44-10.75,26.68-23.8a57.07,57.07,0,0,0,.91-31.1c-2-8.66-6.42-15.88-13.77-21.09-6.45-4.57-13.8-6.57-21.55-6.88-8-.32-15.94-.17-23.92-.23C144.6,71.15,144.46,71.18,144.28,71.2Z"/><path class="cls-2" d="M440.77,88.77h-1.1c-4.94,0-9.88,0-14.82,0a1.51,1.51,0,0,1-1.56-.9,31.31,31.31,0,0,0-18.76-15.43A44.94,44.94,0,0,0,387,70.93,38.25,38.25,0,0,0,352.49,103c-1.49,8.75-1.36,17.48,1.71,25.87,5.21,14.24,15.37,22.86,30.41,25.39a40,40,0,0,0,23.49-2.76,32,32,0,0,0,15.2-14,1.45,1.45,0,0,1,1.45-.89c5,0,10,0,15,0h1c-.16.42-.27.73-.41,1-6.21,14-16.89,23-31.55,27.17-14.48,4.07-28.84,3.53-42.38-3.45-15.29-7.88-25.06-20.34-28.15-37.42-2.4-13.31-1.28-26.37,5.53-38.33,8.37-14.71,21-23.79,37.8-26.6,12.59-2.1,24.8-.69,36.35,5a46.3,46.3,0,0,1,22.57,24C440.6,88.29,440.65,88.45,440.77,88.77Z"/><path class="cls-3" d="M330.33,198.91h-2.48V187.59l-.19-.05c-.16.28-.33.55-.48.84q-2.12,4.19-4.21,8.38c-.27.53-.47.91-1.21.92s-.88-.42-1.11-.88l-4.16-8.29a1.93,1.93,0,0,0-.66-.81v11.19h-2.55V183.81c1.21,0,2.4-.05,3.59,0,.26,0,.59.43.73.73,1.4,2.84,2.76,5.69,4.19,8.67.22-.41.39-.72.55-1.05,1.24-2.56,2.49-5.12,3.7-7.69a1,1,0,0,1,1.11-.71c1,.05,2.1,0,3.18,0Z"/><path class="cls-3" d="M132.72,183.81v15.05h-2.53V187.62l-.18-.05c-.15.29-.32.58-.47.87-1.42,2.82-2.85,5.65-4.26,8.48a1.18,1.18,0,0,1-2.19,0q-2.11-4.26-4.25-8.5a2.33,2.33,0,0,0-.64-.83v11.28h-2.52V183.81c1.19,0,2.39-.05,3.58,0,.26,0,.59.43.73.73,1.4,2.84,2.76,5.69,4.2,8.71.54-1.11,1-2.09,1.49-3.07.91-1.9,1.84-3.79,2.73-5.71a1,1,0,0,1,1.11-.71C130.57,183.85,131.62,183.81,132.72,183.81Z"/><path class="cls-4" d="M386,183.87a3.41,3.41,0,0,1,3.9,1.61c2.3,3.19,4.8,6.24,7.36,9.54V183.86h2.57v15.08a19.47,19.47,0,0,1-2.42,0c-.34,0-.68-.43-.93-.74-2.45-3.14-4.88-6.29-7.32-9.43l-.6-.75v10.9H386Z"/><path class="cls-4" d="M249.66,195V183.87h2.53v15.07a18.61,18.61,0,0,1-2.36,0,1.85,1.85,0,0,1-.94-.72q-3.64-4.66-7.26-9.34L241,188v10.87H238.4v-15c1.39-.16,2.57-.24,3.61,1.23C244.37,188.44,247,191.59,249.66,195Z"/><path class="cls-4" d="M90.65,195.1V183.85h2.49v15.09a17.63,17.63,0,0,1-2.3,0,1.71,1.71,0,0,1-1-.66c-2.62-3.32-5.2-6.66-8-10.22v10.84h-2.6v-15c1.45-.24,2.63-.17,3.68,1.29C85.36,188.5,88,191.65,90.65,195.1Z"/><path class="cls-5" d="M463.19,193.51c1.29,1.81,2.53,3.54,3.9,5.43-1.1,0-2,.05-2.9,0a1.4,1.4,0,0,1-.78-.56c-.9-1.22-1.8-2.44-2.62-3.71a1.59,1.59,0,0,0-1.65-.81c-.72.07-1.46,0-2.29,0v5.05h-2.53V183.7c2.8.11,5.59.07,8.33.4a3.72,3.72,0,0,1,3.67,3.68c.32,2.82-.48,4.45-2.68,5.49Zm-6.3-1.89c1.78-.11,3.5-.11,5.19-.36,1.22-.17,1.7-1.14,1.67-2.67,0-1.35-.49-2.14-1.74-2.25-1.69-.16-3.4,0-5.12,0Z"/><path class="cls-5" d="M104.43,183.44a7.84,7.84,0,1,1-8,7.76A7.74,7.74,0,0,1,104.43,183.44Zm5.31,7.85a5.33,5.33,0,1,0-10.65-.09,5.33,5.33,0,1,0,10.65.09Z"/><path class="cls-4" d="M54.15,193.49l3.91,5.45c-1.07,0-2,0-2.86,0a1.37,1.37,0,0,1-.79-.54c-.91-1.21-1.81-2.43-2.64-3.7a1.54,1.54,0,0,0-1.62-.84c-.72.07-1.46,0-2.29,0v5H45.33V183.67c2.92.15,5.84.15,8.71.5,2,.24,3,1.63,3.3,3.71.31,2.33-.52,4.25-2.25,5.17C54.81,193.2,54.52,193.32,54.15,193.49Zm-6.31-1.88c1.78-.1,3.44-.09,5.06-.32,1.36-.19,1.88-1.14,1.81-2.76-.06-1.41-.61-2.16-2-2.26-1.6-.12-3.21,0-4.88,0v5.37Z"/><path class="cls-5" d="M294.06,191.12c.09-4.58,3.53-7.77,8.28-7.67a7.67,7.67,0,0,1,7.67,8.07,8,8,0,0,1-15.95-.4Zm2.62.13a5.36,5.36,0,1,0,5.4-5.46A5.42,5.42,0,0,0,296.68,191.25Z"/><path class="cls-5" d="M60.09,191.23a8,8,0,0,1,16,.07,8,8,0,0,1-16-.07ZM68,185.79a5.49,5.49,0,1,0,5.4,5.46A5.4,5.4,0,0,0,68,185.79Z"/><path class="cls-4" d="M256.48,198.88V183.67a71.84,71.84,0,0,1,8.22.51c3.77.65,5.87,4,5.43,8s-2.68,6.33-6.84,6.7C261.06,199,258.8,198.88,256.48,198.88Zm2.6-12.8v10.56a45.79,45.79,0,0,0,4.77-.33c2.42-.43,3.69-2.25,3.7-4.93s-1.21-4.47-3.68-4.93A45.82,45.82,0,0,0,259.08,186.08Z"/><path class="cls-4" d="M156.5,183.68a74.74,74.74,0,0,1,7.89.45c3.79.6,5.77,3.38,5.69,7.43s-2.21,6.64-6,7.12c-2.5.32-5,.25-7.62.36Zm2.55,12.95c1.61-.09,3.1-.07,4.55-.28a4.41,4.41,0,0,0,3.9-4.44c.15-2.87-.89-4.79-3.26-5.34a36.79,36.79,0,0,0-5.19-.51Z"/><path class="cls-5" d="M449.89,192.53h-7.13v4H451v2.35H440.15v-15h10.57v2.28h-8v4h7.15Z"/><path class="cls-6" d="M518.34,186.23h-7.93v4h7.17v2.34h-7.17v4h8.28v2.33H507.85v-15h10.49Z"/><path class="cls-4" d="M236.19,198.88c-2.65.19-2.71.21-3.63-2.1a1.7,1.7,0,0,0-2-1.28c-1.83.1-3.67,0-5.5.05-.32,0-.66.34-.92.59s-.21.43-.31.66c-1,2.25-1,2.25-3.6,2.09a5.5,5.5,0,0,1,.25-.75c2-4.5,4-9,5.93-13.51.29-.66.66-.77,1.33-.86,1.46-.21,2.07.43,2.6,1.7,1.75,4.19,3.62,8.31,5.45,12.46C235.92,198.22,236,198.51,236.19,198.88Zm-5.27-5.77-2.73-6.19-2.72,6.19Z"/><path class="cls-4" d="M198.15,198.86l.67-1.55c1.86-4.21,3.75-8.4,5.53-12.65.48-1.15,1.3-.77,2.07-.86a1.26,1.26,0,0,1,1.53.87c1.89,4.43,3.85,8.82,5.79,13.23l.42.94a.89.89,0,0,1-.21.07c-2.45.16-2.53.19-3.4-2.08a1.75,1.75,0,0,0-2.08-1.33c-1.79.1-3.59.05-5.39,0-.54,0-.86.14-1,.66a7.35,7.35,0,0,1-.32.77C200.78,199.14,200.78,199.14,198.15,198.86Zm8-11.94-2.71,6.18h5.44C208,191,207.09,189.06,206.15,186.92Z"/><path class="cls-4" d="M16.31,198.84c-.08,0-.11.07-.14.07-2.46.18-2.51.2-3.46-2.16a1.66,1.66,0,0,0-1.92-1.26,51.85,51.85,0,0,1-5.29,0,1.14,1.14,0,0,0-1.35.94,5,5,0,0,1-.21.48c-1,2.2-1,2.2-3.6,2l.41-1c1.94-4.41,3.91-8.81,5.8-13.23A1.18,1.18,0,0,1,8,183.8c.79.12,1.67-.35,2.18.86,1.89,4.5,3.91,9,5.87,13.42C16.13,198.33,16.22,198.59,16.31,198.84Zm-10.7-5.71h5.46l-2.73-6.21Z"/><path class="cls-4" d="M187.22,198.94c-.72,0-1.45,0-2.18,0-.19,0-.39-.2-.56-.35a.67.67,0,0,1-.17-.38c-.46-2.3-1.85-3.05-4.13-2.7a38.24,38.24,0,0,1-4,.06c-.3,0-.61.31-.85.54a2.13,2.13,0,0,0-.32.66c-1,2.33-1,2.33-3.68,2.13,1-2.33,2-4.64,3.05-6.94s2.13-4.75,3.13-7.15c.31-.75.7-1.18,1.54-1,.63.15,1.47-.44,1.87.46q3.18,7.17,6.33,14.37A1.22,1.22,0,0,1,187.22,198.94Zm-10.61-5.82h5.46l-2.73-6.19Z"/><path class="cls-5" d="M415.07,187.31a5.76,5.76,0,0,0-4.31-1.33,5.18,5.18,0,0,0-4.7,3.49,5.56,5.56,0,0,0,1.52,6,6.21,6.21,0,0,0,6.56.48,1.16,1.16,0,0,0,.42-.83c.05-1.15,0-2.31,0-3.51h2.58c0,1.63,0,3.21,0,4.78a1.41,1.41,0,0,1-.49.86c-2.32,2.2-7,2.55-9.9.77a8,8,0,1,1,9.7-12.67Z"/><path class="cls-3" d="M334.6,198.88c0-.18,0-.31,0-.45V183.79c2.93.17,5.85-.39,8.69.51,2.15.68,3.16,2.34,3.15,4.93s-1,4.15-3.17,4.79a14.78,14.78,0,0,1-3.12.46c-.94.08-1.89,0-3,0v4.38Zm2.57-6.62a46.63,46.63,0,0,0,4.7-.33c1.32-.22,1.87-1.25,1.87-2.89,0-1.48-.47-2.36-1.79-2.59-1.56-.28-3.16-.29-4.78-.42Z"/><path class="cls-5" d="M17.29,196.62,18.62,195c1.61.6,3,1.21,4.46,1.64a3.66,3.66,0,0,0,1.87-.16,1.67,1.67,0,0,0,1.34-1.57,1.59,1.59,0,0,0-1.1-1.73c-.89-.33-1.81-.57-2.71-.86a23.94,23.94,0,0,1-2.38-.84,3.75,3.75,0,0,1-2.25-3.75,3.91,3.91,0,0,1,2.36-3.69,8.19,8.19,0,0,1,8.31,1.22l-1.12,1.59c-1.52-.39-2.85-.78-4.21-1a2.27,2.27,0,0,0-1.52.26,2.24,2.24,0,0,0-1,1.4,2.14,2.14,0,0,0,.86,1.61,12.33,12.33,0,0,0,2.56.92c.83.27,1.68.51,2.49.84A3.77,3.77,0,0,1,29,194.67a4.12,4.12,0,0,1-2.5,3.85C23.79,199.85,19.65,199,17.29,196.62Z"/><path class="cls-5" d="M520.67,196.77l1.46-1.75c1.57.6,3,1.22,4.43,1.64a3.81,3.81,0,0,0,2-.18,1.67,1.67,0,0,0,1.29-1.62,1.58,1.58,0,0,0-1.1-1.64c-1.19-.42-2.43-.72-3.63-1.11-1.53-.5-3-1.13-3.52-2.86a4.2,4.2,0,0,1,2.9-5.5,8.44,8.44,0,0,1,7.56,1.54l-1.13,1.6c-1.51-.39-2.83-.79-4.19-1.06a2.21,2.21,0,0,0-2.56,1.65,2.15,2.15,0,0,0,.83,1.61,11.87,11.87,0,0,0,2.57.92c.83.28,1.68.52,2.49.85a3.75,3.75,0,0,1,2.47,3.8,4,4,0,0,1-2.49,3.85,7.85,7.85,0,0,1-6.65-.16A23.79,23.79,0,0,1,520.67,196.77Z"/><path class="cls-5" d="M425.21,196.65l1.35-1.63a44.57,44.57,0,0,0,4.48,1.63,3.43,3.43,0,0,0,2.23-.35,2,2,0,0,0,.93-1.48,2,2,0,0,0-.91-1.49,13.93,13.93,0,0,0-2.68-.94c-.5-.16-1-.27-1.51-.44-2.45-.82-3.39-2.14-3.27-4.52.1-2,1.41-3.37,3.73-3.83a8.49,8.49,0,0,1,6.94,1.64c-.46.64-.88,1.24-1.24,1.76a25.57,25.57,0,0,0-3.2-1.07,4.47,4.47,0,0,0-2.38.16,2,2,0,0,0-1.1,1.43,2.08,2.08,0,0,0,.88,1.59A11.44,11.44,0,0,0,432,190c.67.22,1.36.38,2,.64,2.24.9,3.06,2.21,2.87,4.48a4.33,4.33,0,0,1-3.58,3.79A9,9,0,0,1,425.21,196.65Z"/><path class="cls-4" d="M349.21,183.84h2.56c0,.68,0,1.34,0,2,0,2.54,0,5.08.18,7.6a3.46,3.46,0,0,0,3.75,3.25,3.52,3.52,0,0,0,3.65-3.38c.18-1.89.12-3.8.14-5.7,0-1.23,0-2.45,0-3.74h2.58c0,1.55,0,3.09,0,4.62a47.55,47.55,0,0,1-.13,5.07c-.45,3.66-3,5.71-6.7,5.56a6,6,0,0,1-6-6.1C349.12,190,349.21,187,349.21,183.84Z"/><path class="cls-5" d="M503,194.88l1.74,1.5a7.87,7.87,0,1,1-11.63-10.6,8.25,8.25,0,0,1,11.83.27l-1.58,1.73c-3.27-2.37-6.4-2.37-8.48-.06a5.46,5.46,0,0,0,.07,7.15C497,197.19,499.84,197.18,503,194.88Z"/><path class="cls-4" d="M473.93,198.94l-6.09-15.13a20.34,20.34,0,0,1,2.49,0c.27,0,.57.44.7.75,1.42,3.4,2.82,6.81,4.3,10.39.2-.39.35-.64.46-.91,1.27-3,2.57-6.09,3.76-9.17.34-.86.74-1.25,1.67-1.11a12.31,12.31,0,0,0,1.62,0c-.11.35-.17.63-.28.9-1.78,4.44-3.59,8.86-5.34,13.31-.29.75-.65,1-1.45,1A14,14,0,0,0,473.93,198.94Z"/><path class="cls-5" d="M290.58,194.88l1.63,1.49a7.86,7.86,0,1,1-11.47-10.71,8.16,8.16,0,0,1,11.68.42l-1.53,1.66c-3.65-2.33-6.49-2.31-8.55,0a5.49,5.49,0,0,0,0,7C284.39,197.16,286.9,197.19,290.58,194.88Z"/><path class="cls-4" d="M142.94,198.91h-2.63c0-1.19-.08-2.36,0-3.5a6.69,6.69,0,0,0-1.28-4.53c-1.5-2.25-2.86-4.6-4.38-7.07a23.08,23.08,0,0,1,2.52,0c.25,0,.53.39.7.66,1.23,2,2.44,4,3.73,6.16l3-5c1.24-2.07,1.24-2.07,3.84-1.71-1.19,1.94-2.25,3.92-3.55,5.73a9.59,9.59,0,0,0-2,7.17A16,16,0,0,1,142.94,198.91Z"/><path class="cls-5" d="M371.85,198.9h-2.6V186.22h-4.53v-2.36h11.63v2.3h-4.5Z"/><path class="cls-4" d="M30.78,183.87h11.7v2.24H38v12.77H35.36V186.19H30.78Z"/><path class="cls-5" d="M198.61,183.87v2.29h-4.56v12.72h-2.57V186.2h-4.56v-2.33Z"/><path class="cls-7" d="M381.71,198.91h-2.46v-15h2.46Z"/><path class="cls-4" d="M485.12,183.86h2.48v15h-2.48Z"/></g></g></svg>
